<?xml version="1.0" standalone="no"?>
<!DOCTYPE svg PUBLIC "-//W3C//DTD SVG 20010904//EN"
 "http://www.w3.org/TR/2001/REC-SVG-20010904/DTD/svg10.dtd">
<svg version="1.0" xmlns="http://www.w3.org/2000/svg"
 width="640.000000pt" height="640.000000pt" viewBox="0 0 640.000000 640.000000"
 preserveAspectRatio="xMidYMid meet">
<metadata>
Created by potrace 1.14, written by Peter Selinger 2001-2017
</metadata>
<g transform="translate(0.000000,640.000000) scale(0.100000,-0.100000)"
fill="#000000" stroke="none">
<path d="M3636 6363 c-43 -11 -181 -96 -216 -133 -3 -3 -24 -20 -47 -38 -23
-18 -65 -65 -94 -104 -110 -152 -147 -264 -230 -703 -12 -60 -27 -123 -35
-140 -8 -18 -9 -31 -4 -33 6 -2 10 -8 10 -13 0 -6 -4 -8 -9 -4 -6 3 -15 -11
-20 -32 -15 -52 -13 -64 5 -28 l14 30 -6 -30 c-26 -132 -64 -374 -69 -440 -10
-130 -25 -236 -42 -295 -17 -62 -72 -183 -85 -188 -4 -2 -8 -13 -8 -25 0 -16
-3 -18 -9 -9 -6 10 -16 5 -41 -20 -19 -18 -38 -33 -44 -33 -6 0 -12 -4 -12
-10 -4 -28 -17 -54 -25 -49 -5 3 -6 -2 -3 -10 3 -9 2 -16 -4 -16 -5 0 -17 -27
-26 -60 -12 -41 -21 -58 -30 -54 -10 4 -16 -9 -21 -42 -4 -26 -14 -58 -22 -71
-8 -13 -13 -33 -10 -45 8 -30 -9 -57 -31 -51 -12 3 -22 -2 -25 -11 -4 -9 -2
-16 3 -16 6 0 10 5 10 12 0 6 3 8 7 5 3 -4 -5 -20 -19 -35 -16 -17 -29 -48
-36 -84 -6 -31 -27 -87 -46 -125 -45 -90 -87 -195 -75 -188 5 3 6 -1 3 -9 -3
-9 -9 -14 -13 -12 -3 2 -7 -12 -8 -31 -1 -20 -7 -41 -12 -46 -6 -6 -11 -22
-11 -35 0 -15 -4 -21 -11 -16 -7 4 -10 1 -7 -7 3 -8 -1 -30 -9 -49 -9 -19 -21
-66 -28 -105 -7 -38 -16 -83 -19 -100 -5 -25 -4 -26 4 -10 8 17 9 15 5 -10 -3
-16 -11 -70 -19 -120 -8 -49 -17 -124 -20 -165 -4 -47 -11 -79 -20 -85 -20
-15 -29 -92 -12 -102 24 -14 48 -103 41 -153 -7 -48 -1 -68 62 -199 19 -41 37
-93 40 -115 l5 -41 -15 27 c-24 42 -41 63 -54 65 -7 2 -13 -2 -13 -7 0 -6 -4
-10 -10 -10 -5 0 -10 7 -10 15 0 9 -7 18 -16 22 -8 3 -13 12 -10 20 4 9 1 13
-6 10 -7 -2 -22 0 -33 6 -19 10 -19 9 -5 -8 8 -11 9 -16 3 -11 -15 8 -94 141
-92 153 3 20 -2 33 -13 30 -7 -1 -30 35 -52 81 -38 77 -67 110 -52 60 21 -71
19 -82 -19 -106 -36 -23 -55 -55 -55 -96 0 -21 21 -52 83 -120 32 -36 34 -52
8 -66 -12 -6 -18 -18 -16 -30 5 -25 -3 -26 -22 -3 -10 12 -12 13 -8 3 4 -8 -3
-4 -14 9 -12 13 -21 18 -21 12 0 -6 -4 -11 -10 -11 -5 0 -10 8 -10 19 0 10 -7
24 -15 31 -8 7 -12 17 -8 23 3 5 2 7 -4 4 -5 -3 -40 39 -78 93 -52 76 -71 98
-81 90 -9 -9 -7 -16 12 -35 13 -13 24 -28 24 -34 0 -9 56 -98 85 -136 8 -10
15 -24 15 -30 0 -6 11 -22 25 -35 13 -12 22 -27 19 -31 -3 -5 3 -6 12 -2 12 4
15 3 10 -5 -4 -7 -1 -13 6 -14 7 0 18 -2 23 -3 6 -2 20 -3 31 -4 26 -1 40 -31
22 -43 -10 -6 -9 -8 3 -8 8 0 28 13 43 29 32 33 100 49 92 21 -3 -8 -8 -33
-12 -55 -8 -49 -16 -55 -78 -55 -66 0 -53 -10 19 -15 31 -2 59 -5 61 -8 2 -2
-29 -7 -69 -10 -85 -7 -188 -28 -170 -34 7 -3 36 0 63 6 28 6 76 11 105 11 58
0 67 -10 46 -49 -6 -10 -12 -48 -15 -85 l-5 -67 35 3 c27 2 39 -3 53 -20 9
-13 26 -24 36 -26 11 -2 25 -13 32 -26 l12 -24 5 25 c3 13 7 49 8 79 2 38 7
54 16 53 15 -4 15 7 2 41 -5 15 -6 26 0 26 5 0 14 -16 21 -35 7 -19 17 -35 21
-35 4 0 7 -3 6 -7 -1 -5 7 -33 19 -64 13 -33 26 -103 33 -174 6 -66 16 -144
21 -175 5 -30 9 -58 9 -62 0 -11 48 -10 54 1 3 4 1 23 -5 42 -14 47 -41 329
-34 357 4 18 12 22 45 22 60 0 73 -27 66 -132 -5 -76 -4 -74 10 31 14 102 14
117 0 146 -9 18 -16 38 -16 44 0 6 -9 28 -20 48 -11 21 -20 43 -20 50 0 6 -8
14 -18 17 -10 3 -19 17 -20 31 -2 23 2 25 39 25 22 0 38 -4 35 -9 -3 -4 32
-11 77 -14 45 -4 105 -9 132 -12 38 -4 45 -3 30 5 -35 18 95 -2 240 -37 19 -4
20 0 17 126 l-3 130 -29 21 c-51 36 -73 99 -72 209 0 53 5 109 11 125 11 26
14 28 52 23 47 -6 193 -86 227 -124 21 -23 23 -32 17 -81 -16 -132 -56 -202
-115 -202 l-30 0 0 -121 c0 -121 0 -121 -22 -116 -22 6 -22 6 -4 -8 11 -8 30
-15 44 -15 14 0 21 -4 17 -11 -4 -6 -21 -8 -38 -4 l-32 6 32 -18 c24 -14 30
-22 23 -34 -10 -18 -9 -26 14 -115 34 -131 4 -399 -62 -561 -26 -64 -28 -73
-13 -73 10 0 27 14 39 30 23 31 48 41 39 16 -3 -8 -1 -16 5 -18 17 -6 -118
-54 -218 -79 -122 -30 -113 -19 11 15 89 24 103 30 100 47 -2 10 1 19 6 19 6
0 8 4 5 8 -3 5 2 22 10 37 9 17 16 61 17 101 1 40 5 67 9 61 4 -7 8 0 8 16 0
34 -14 28 -28 -13 -8 -22 -8 -30 1 -30 8 0 9 -2 1 -8 -6 -4 -19 -25 -30 -47
-10 -22 -21 -42 -24 -45 -4 -3 -19 -27 -34 -55 -15 -27 -33 -59 -41 -69 -26
-35 -27 -9 -1 40 16 32 24 62 22 86 -2 21 1 35 6 32 4 -3 8 -1 8 5 0 5 -4 12
-10 16 -5 3 -7 21 -5 40 l5 35 -44 0 c-26 0 -51 -6 -59 -15 -8 -8 -17 -11 -20
-8 -8 7 -38 -23 -54 -55 -11 -21 -11 -26 4 -38 17 -12 17 -12 -2 -11 -17 2
-20 -3 -17 -30 2 -17 -2 -34 -7 -38 -6 -3 -11 -15 -11 -26 0 -11 -16 -36 -35
-56 -40 -42 -44 -57 -12 -50 12 3 45 8 72 11 l50 6 -60 -15 c-128 -32 -146
-38 -136 -48 6 -6 4 -21 -5 -43 -8 -18 -14 -45 -14 -59 0 -14 -6 -28 -14 -31
-8 -3 -13 -11 -10 -17 4 -12 -40 -70 -47 -63 -2 3 -27 7 -54 10 -48 6 -190 44
-170 45 19 2 -20 21 -42 21 -13 0 -23 4 -23 8 0 5 -26 8 -57 7 -56 -1 -127 21
-118 36 3 3 -2 12 -11 19 -12 11 -12 15 -2 22 9 6 3 8 -16 5 -33 -5 -80 8 -72
21 2 4 -3 8 -12 9 -9 1 -28 4 -42 8 -36 11 122 -93 185 -120 29 -13 139 -44
246 -70 233 -55 296 -85 402 -193 91 -91 119 -101 202 -72 33 12 76 26 95 32
19 5 40 18 48 27 7 9 10 10 7 3 -6 -11 -3 -12 14 -2 12 6 19 15 16 20 -3 5 0
12 6 16 8 4 9 3 5 -4 -10 -17 -2 -15 41 9 86 48 99 66 17 24 -27 -14 -40 -20
-30 -13 11 7 35 27 55 43 19 17 32 24 27 17 -9 -15 13 -16 34 -1 12 9 11 10
-5 4 -20 -6 -20 -6 0 13 18 17 21 17 27 3 5 -12 7 -10 7 8 1 18 5 22 18 17 10
-4 14 -4 11 -1 -7 8 44 65 58 65 5 0 2 -5 -6 -10 -8 -5 -10 -10 -5 -10 6 0 26
18 44 40 18 22 37 40 42 40 4 0 29 20 55 45 25 25 43 45 39 45 -4 0 8 12 25
26 18 16 29 33 26 41 -3 8 -1 11 5 8 5 -4 20 4 33 17 12 12 31 28 42 35 19 12
19 12 -1 8 -11 -3 -6 1 10 9 17 8 34 12 39 8 5 -3 6 0 3 5 -9 15 16 23 71 23
61 0 93 -9 85 -24 -3 -6 -3 -8 2 -4 4 4 14 3 22 -3 7 -6 13 -9 13 -5 0 3 9 -2
19 -11 10 -10 33 -30 49 -45 17 -14 28 -29 25 -32 -4 -3 -2 -6 4 -6 6 0 26
-29 43 -64 33 -65 36 -116 7 -116 -7 0 -18 -9 -25 -20 -7 -11 -18 -20 -26 -20
-7 0 -21 -9 -31 -20 -10 -11 -26 -20 -35 -20 -9 0 -34 -16 -56 -35 -21 -19
-43 -35 -49 -35 -5 0 -23 -11 -39 -25 -16 -14 -37 -25 -48 -25 -10 0 -18 -4
-18 -9 0 -5 -7 -12 -16 -15 -10 -4 -13 -2 -7 6 4 7 -13 -4 -38 -24 -25 -21
-64 -41 -88 -47 -24 -5 -48 -14 -54 -20 -6 -6 -19 -11 -28 -11 -10 0 -32 -13
-49 -29 -18 -16 -44 -35 -58 -42 -55 -28 -101 -62 -96 -70 3 -5 -4 -9 -14 -9
-11 0 -33 -13 -48 -29 -16 -15 -36 -31 -44 -35 -27 -11 338 4 443 19 217 30
401 72 583 130 130 42 265 97 269 109 2 6 7 73 10 148 l7 136 29 12 c16 7 43
28 59 47 43 48 89 144 81 166 -6 16 -9 16 -18 5 -6 -7 -13 -20 -16 -28 -3 -10
-6 -7 -6 8 -1 13 -5 20 -11 17 -6 -4 -8 -15 -5 -26 4 -10 2 -19 -3 -19 -5 0
-12 24 -16 52 -7 56 -25 122 -32 116 -2 -2 1 -20 6 -39 13 -49 18 -129 8 -129
-4 0 -8 8 -8 18 0 10 -7 45 -15 77 -45 174 -244 373 -404 404 -99 20 -163 0
-202 -62 -18 -28 -20 -28 -14 -7 18 64 79 100 171 100 100 0 71 11 -35 13 -59
1 -91 -2 -91 -9 0 -5 -7 -19 -15 -30 -14 -17 -14 -15 0 20 8 21 15 40 15 42 0
1 30 28 66 58 l65 56 87 0 c91 0 132 7 132 20 0 11 -85 69 -118 81 -14 5 -22
12 -19 15 11 11 135 -37 221 -86 47 -28 89 -50 92 -50 12 0 64 -42 64 -52 0
-6 -16 2 -35 16 -34 26 -35 26 -35 6 0 -12 4 -19 9 -16 5 3 8 -2 7 -11 -1 -12
21 -28 69 -53 191 -96 283 -182 277 -258 -3 -38 -21 -69 -31 -54 -5 7 -82 34
-106 37 -5 0 -9 6 -7 13 1 7 -8 16 -20 21 -13 5 -43 28 -66 50 -24 23 -50 41
-57 41 -8 0 -16 8 -20 18 -3 9 -17 31 -30 47 -24 29 -25 29 -20 6 6 -35 58
-138 97 -197 19 -27 40 -65 48 -84 7 -19 17 -39 22 -45 4 -5 8 -33 8 -62 0
-29 4 -53 8 -53 20 0 93 58 121 95 17 22 33 56 37 75 4 19 20 50 35 68 33 38
35 49 13 81 l-16 23 45 -7 c32 -5 53 -2 76 9 23 12 36 14 50 6 27 -14 64 -13
86 4 18 13 18 15 -11 42 -32 32 -81 57 -94 49 -5 -3 -11 -1 -15 5 -3 5 -14 10
-24 10 -10 0 -24 7 -31 15 -10 12 -16 13 -27 3 -11 -9 -20 -8 -41 3 -15 9 -47
22 -71 29 -25 8 -46 22 -48 31 -3 10 -26 27 -51 38 -26 11 -67 34 -91 50 -24
16 -51 27 -59 23 -11 -4 -13 -2 -7 8 6 10 4 12 -8 7 -10 -3 -17 -2 -17 4 0 6
-6 9 -12 6 -7 -2 -24 4 -38 13 -14 10 -34 20 -45 22 -11 1 -29 11 -40 21 -11
10 -31 21 -45 24 -14 4 -46 17 -71 30 -26 13 -53 23 -61 23 -8 0 -23 9 -33 20
-10 11 -21 18 -25 15 -4 -2 -17 5 -29 16 -17 16 -19 24 -11 34 12 14 50 16 50
3 0 -4 12 -8 28 -8 40 0 73 -11 66 -22 -3 -5 5 -6 18 -3 13 3 46 -2 73 -11 28
-9 63 -18 79 -20 58 -8 94 -26 100 -53 5 -24 92 -99 102 -88 3 2 -6 11 -20 20
-22 15 -73 77 -63 77 9 0 97 -93 97 -103 0 -6 3 -7 7 -4 3 4 12 2 20 -4 7 -7
46 -14 86 -16 67 -4 71 -3 53 11 -19 15 -15 16 47 11 98 -7 94 10 -15 54 -55
22 -78 35 -78 43 0 4 -5 8 -11 8 -6 0 -17 7 -26 15 -8 9 -35 21 -59 27 -24 7
-44 16 -44 20 0 4 -8 8 -18 8 -11 0 -32 6 -48 14 -35 18 -179 56 -209 56 -11
0 -26 5 -32 11 -6 6 -42 13 -80 16 -81 5 -140 21 -147 39 -3 8 -16 14 -30 14
-28 0 -36 16 -36 70 0 32 7 45 43 79 94 90 145 111 267 111 58 0 79 13 42 24
-10 4 -19 13 -19 21 0 12 3 12 16 2 12 -10 14 -9 8 5 -5 13 0 19 16 22 69 14
107 20 153 21 28 1 55 5 62 8 6 4 14 2 18 -4 5 -8 9 -7 15 2 4 8 3 19 -3 26
-14 18 0 17 18 -1 10 -11 11 -15 1 -19 -6 -2 9 -8 34 -12 29 -4 55 -3 67 4 25
13 32 14 32 2 0 -5 -8 -11 -17 -14 -15 -3 -14 -6 7 -14 14 -6 29 -7 33 -3 9 8
63 -15 73 -32 5 -7 2 -8 -6 -3 -9 5 -11 4 -6 -3 4 -7 20 -12 36 -12 16 0 42
-11 60 -26 25 -21 28 -29 19 -41 -10 -11 -8 -20 8 -41 11 -15 26 -27 34 -27 8
0 13 -8 11 -20 -3 -15 -1 -17 11 -7 33 28 25 -14 -12 -60 -10 -13 -17 -15 -27
-7 -7 6 -26 11 -43 11 -17 1 -31 5 -31 9 0 10 -14 11 -127 10 -54 -1 -94 3
-98 9 -3 6 -10 8 -15 5 -5 -3 -23 1 -40 10 -16 8 -31 14 -33 13 -2 -2 -14 4
-27 13 -25 15 -44 22 -107 38 -74 19 -27 -54 60 -94 122 -56 476 -125 640
-125 93 0 153 23 117 45 -16 10 -12 37 15 90 34 67 75 181 75 208 -1 22 -1 22
-15 3 -8 -11 -15 -16 -15 -10 0 19 -21 -22 -31 -64 -13 -50 -29 -65 -29 -27 0
42 -85 146 -131 160 -10 4 -19 11 -19 16 0 5 -9 9 -19 9 -11 0 -23 5 -26 10
-4 6 -11 8 -16 5 -5 -4 -9 -1 -9 5 0 7 -7 10 -15 6 -8 -3 -15 -1 -15 4 0 6
-17 10 -37 10 -21 0 -60 6 -88 13 -52 14 -323 16 -380 3 -16 -4 -37 -8 -45
-10 -8 -1 -35 -9 -60 -16 -25 -7 -68 -14 -97 -16 l-52 -4 -10 36 c-10 37 -5
68 10 58 13 -8 11 10 -2 23 -8 8 0 29 29 78 25 42 42 62 46 53 3 -7 5 -4 2 8
-4 27 12 57 26 48 7 -4 8 -2 4 4 -4 7 -1 12 6 12 10 0 10 2 -1 9 -12 8 -12 13
3 35 9 15 14 31 11 35 -3 5 2 16 10 24 19 20 19 25 -2 30 -17 4 -17 5 -1 6 19
1 21 40 3 53 -6 4 -2 8 8 8 9 0 17 6 18 13 0 6 5 -3 10 -22 12 -41 21 -36 13
7 -4 21 -13 32 -26 34 -18 3 -16 8 21 43 22 22 41 45 41 52 0 7 8 16 17 22 26
14 7 26 -20 14 -15 -7 -29 -8 -38 -2 -11 8 -10 13 9 28 15 13 20 25 16 38 -6
16 -5 16 9 -2 8 -11 19 -16 23 -12 5 4 2 12 -6 17 -11 7 -12 13 -2 35 7 15 10
30 7 35 -3 4 2 24 10 44 16 38 82 93 178 146 65 36 78 51 18 20 -68 -34 -121
-11 -76 34 8 8 15 24 15 36 0 12 5 18 10 15 9 -6 14 8 11 28 -3 15 48 107 94
172 63 88 142 165 198 194 15 8 27 19 27 24 0 5 -6 4 -14 -2 -11 -9 -15 -9
-18 0 -6 17 -69 -13 -116 -56 -23 -20 -65 -73 -94 -118 -53 -84 -212 -390
-262 -507 -15 -36 -36 -83 -47 -106 -10 -23 -19 -46 -19 -53 0 -6 -6 -10 -12
-8 -8 1 -13 -9 -14 -23 -2 -52 -4 -60 -14 -60 -7 0 -7 6 0 20 7 14 7 20 0 20
-5 0 -10 -6 -10 -14 0 -8 -6 -17 -12 -20 -10 -5 -10 -7 0 -12 22 -11 13 -26
-13 -20 -19 5 -23 3 -19 -9 4 -9 3 -15 -2 -14 -21 3 -28 -2 -14 -11 22 -14 5
-23 -19 -10 -26 13 -29 -5 -4 -19 10 -5 15 -12 11 -16 -3 -4 -18 4 -32 16 -26
23 -26 23 -5 34 21 12 21 12 -6 43 -29 34 -27 39 8 21 21 -11 21 -11 -2 14
-15 16 -20 30 -15 39 5 7 9 24 9 38 1 14 6 34 12 46 7 12 8 25 2 35 -5 7 -9
10 -9 5 0 -6 -7 -1 -15 10 -10 13 -14 15 -15 5 0 -8 -3 -11 -7 -7 -13 12 -2
80 15 100 16 18 16 19 -3 12 -18 -7 -18 -5 3 14 12 11 22 25 22 31 0 6 -7 3
-16 -5 -8 -9 -18 -16 -22 -16 -4 0 4 11 18 23 26 23 38 68 17 64 -6 -1 -11 9
-10 23 2 46 13 134 24 189 6 30 13 76 14 102 2 25 33 154 70 286 l68 239 31
-4 c19 -2 55 7 91 23 33 15 74 28 90 30 17 2 24 1 17 -2 -8 -3 -5 -11 12 -24
32 -25 43 -24 69 7 21 25 23 25 59 10 21 -9 52 -16 70 -16 19 0 66 -16 107
-35 40 -19 78 -32 83 -28 7 3 8 1 4 -5 -4 -6 1 -10 12 -9 29 2 108 -64 142
-120 18 -29 34 -53 36 -53 2 0 -12 31 -32 69 -19 37 -36 80 -38 95 -1 15 -8
32 -14 38 -7 7 -12 16 -12 22 0 5 -16 40 -35 77 -19 37 -44 91 -55 121 -19 49
-39 91 -165 353 -65 135 -80 170 -170 420 -46 127 -104 285 -129 352 -24 68
-50 149 -56 180 -6 32 -15 72 -20 88 -5 17 -12 55 -15 85 -4 30 -17 87 -30
126 -30 89 -100 236 -109 227 -3 -3 -6 2 -6 11 0 22 -118 140 -145 144 -11 2
-26 9 -34 15 -12 10 -13 9 -6 -3 6 -12 5 -13 -6 -2 -7 6 -21 12 -31 12 -10 0
-18 5 -18 11 0 6 -6 16 -12 23 -17 17 -177 60 -313 86 -151 28 -157 29 -179
23z m197 -355 c-5 -23 -3 -29 6 -24 8 5 14 0 18 -13 4 -15 9 -18 17 -12 8 7
12 4 12 -9 0 -10 -3 -17 -7 -14 -4 2 -9 -6 -12 -18 -4 -14 1 -27 17 -39 22
-17 41 -68 37 -96 -1 -7 3 -13 8 -13 5 0 9 -13 9 -28 -1 -31 63 -128 90 -136
9 -3 28 -16 42 -29 14 -13 33 -26 44 -30 10 -4 16 -13 13 -22 -4 -9 -1 -12 7
-9 19 7 34 -37 40 -116 1 -14 5 -33 9 -42 18 -45 21 -55 24 -83 5 -44 19 -51
28 -13 5 22 9 27 12 15 3 -9 8 -15 13 -12 16 10 43 -43 36 -70 -7 -29 10 -34
19 -6 4 14 11 18 23 14 10 -4 12 -8 4 -11 -15 -5 -5 -22 13 -22 22 0 45 30 45
58 -1 34 -16 54 -60 77 l-35 18 28 8 c41 11 60 29 47 44 -12 15 0 27 16 17 16
-11 34 -86 34 -144 0 -50 -3 -57 -35 -85 -38 -34 -46 -63 -17 -63 21 0 59 36
49 47 -4 3 -3 11 2 17 12 15 52 172 53 209 2 51 -61 75 -108 42 -12 -8 -24
-12 -27 -8 -4 3 -13 0 -22 -7 -8 -7 -15 -9 -15 -4 0 11 20 42 20 32 0 -4 11 4
25 17 33 34 87 34 122 -1 23 -23 25 -31 20 -77 -10 -97 -46 -230 -74 -271 -40
-60 -75 -96 -86 -89 -7 4 -8 -1 -2 -13 19 -46 44 -281 25 -239 -5 11 -9 40
-10 65 -1 63 -25 173 -39 178 -6 2 -11 8 -11 13 0 6 6 7 13 3 7 -4 8 -3 4 2
-5 5 -21 9 -35 9 -19 0 -27 6 -31 23 -7 27 -26 30 -27 4 0 -19 -22 -64 -36
-73 -5 -3 -10 -14 -12 -23 -4 -30 -76 -118 -92 -112 -8 3 -17 -1 -20 -9 -8
-19 -43 -19 -50 0 -4 8 -17 15 -30 15 -18 0 -29 10 -44 41 -14 26 -31 44 -51
51 -16 5 -29 14 -29 19 0 4 -19 13 -42 20 -30 8 -60 28 -100 68 -32 32 -58 53
-59 47 0 -6 -5 -2 -10 9 -6 14 -7 4 -3 -32 l6 -53 -49 4 c-31 3 -56 -1 -71
-10 -25 -16 -109 -17 -129 -1 -15 11 -17 49 -4 62 14 15 54 220 59 301 3 68 3
71 -29 102 -25 24 -42 32 -70 32 -33 0 -37 3 -43 31 -3 18 -2 37 4 44 5 6 8
14 5 17 -3 3 1 11 10 18 8 7 15 21 15 32 0 11 5 28 10 38 7 13 7 27 -1 44 -10
21 -7 33 24 88 50 89 162 168 237 168 10 0 21 6 23 13 4 9 8 8 16 -3 9 -12 13
-12 19 -2 5 7 17 12 28 11 42 -4 74 2 86 16 7 8 21 14 30 15 14 0 16 -6 11
-32z m35 7 c0 -26 -13 -34 -20 -13 -4 10 9 35 18 38 1 0 2 -11 2 -25z m-561
-690 c0 -8 -4 -12 -9 -9 -5 3 -6 10 -3 15 9 13 12 11 12 -6z m1113 -185 c0 -9
-31 -30 -44 -30 -4 0 -1 9 6 20 13 21 38 27 38 10z m-1058 -69 c-5 -3 -11 -15
-13 -26 -4 -21 -30 -28 -36 -10 -2 6 9 26 24 44 23 27 29 30 31 16 2 -10 0
-20 -6 -24z m365 -78 c10 -16 20 -30 23 -33 3 -3 12 -14 20 -24 14 -18 13 -19
-2 -13 -12 4 -15 2 -11 -9 3 -8 0 -28 -7 -44 -12 -29 -14 -30 -85 -30 -39 0
-107 -3 -150 -7 l-78 -6 28 31 c27 31 28 31 63 17 40 -17 54 -19 32 -5 -13 8
-11 11 8 16 12 4 22 13 22 21 0 8 5 11 11 7 7 -4 10 -1 7 6 -2 8 3 21 11 31 9
9 27 29 40 43 30 33 46 33 68 -1z m546 -28 c-3 -9 -8 -14 -10 -11 -3 3 -2 9 2
15 9 16 15 13 8 -4z m4 -167 c-2 -13 -4 -5 -4 17 -1 22 1 32 4 23 2 -10 2 -28
0 -40z m-577 -3 c0 -9 -8 -18 -17 -21 -10 -3 -31 -12 -46 -21 -15 -8 -34 -12
-42 -9 -8 3 -17 1 -20 -4 -7 -12 -77 -2 -92 13 -8 8 -9 17 -3 27 8 12 11 13
19 1 6 -9 10 -10 16 -2 3 6 21 11 38 11 27 0 57 4 140 19 4 0 7 -6 7 -14z m80
-66 c0 -5 -5 -7 -11 -4 -6 4 -5 -2 3 -14 7 -12 27 -28 45 -36 43 -21 50 -35
18 -35 -15 0 -24 -4 -20 -10 3 -6 17 -7 31 -4 32 8 32 -13 -1 -28 -14 -6 -33
-27 -42 -46 -9 -18 -33 -45 -53 -58 -31 -21 -41 -23 -64 -14 -15 5 -31 8 -36
5 -16 -10 -63 24 -66 48 -2 22 3 25 54 36 69 15 102 30 102 48 0 7 4 13 8 13
5 0 9 14 9 30 0 17 -3 27 -6 22 -3 -5 -23 -12 -45 -15 -21 -3 -37 -4 -35 -2
17 17 96 75 102 75 4 0 7 -5 7 -11z m467 -136 c11 -27 16 -77 14 -155 -1 -30
-5 -37 -23 -41 -17 -3 -14 -5 10 -6 31 -1 32 0 34 42 l1 42 4 -40 c3 -22 8
-42 13 -45 10 -6 -28 -160 -44 -178 -7 -7 -28 -14 -47 -15 -19 -1 -37 -6 -40
-10 -4 -5 -22 -9 -42 -9 -20 0 -38 -6 -41 -13 -3 -9 -16 -11 -45 -5 -28 5 -41
4 -41 -4 0 -6 -7 -2 -15 8 -8 11 -15 15 -15 10 0 -5 -8 -10 -19 -10 -11 0 -17
6 -14 13 3 7 10 11 16 10 6 -1 13 9 15 22 4 22 32 62 32 45 0 -4 14 11 31 34
22 30 44 47 79 59 27 9 46 21 44 25 -3 4 2 5 10 2 8 -3 23 -1 33 5 15 9 13 11
-17 11 -29 1 -31 3 -15 10 11 5 14 9 8 9 -18 1 -16 21 1 21 9 0 16 17 20 50 4
27 11 52 16 55 6 3 10 24 10 46 0 46 10 50 27 12z m-677 -73 c0 -11 -4 -20 -9
-20 -14 0 -23 18 -16 30 10 17 25 11 25 -10z m610 -62 c0 -5 -4 -8 -10 -8 -5
0 -10 10 -10 23 0 18 2 19 10 7 5 -8 10 -18 10 -22z m355 -158 c3 -5 1 -10 -4
-10 -6 0 -11 5 -11 10 0 6 2 10 4 10 3 0 8 -4 11 -10z m46 -75 c19 -9 57 -29
84 -46 28 -16 65 -37 83 -45 17 -8 32 -19 32 -24 0 -6 5 -10 11 -10 5 0 7 4 4
10 -3 6 1 7 10 4 9 -4 13 -9 11 -12 -3 -3 -1 -11 5 -19 11 -13 -2 -19 -14 -6
-4 3 -24 6 -44 6 -21 0 -48 7 -60 15 -14 9 -23 10 -23 3 0 -7 -8 -8 -25 -1
-16 6 -25 6 -25 0 0 -6 -11 -5 -27 1 -15 5 -38 8 -50 4 -14 -3 -23 -1 -23 6 0
6 -7 9 -15 5 -8 -3 -22 -3 -31 1 -16 6 -16 9 7 96 11 43 19 44 90 12z m-335
-57 c-3 -13 -6 -26 -6 -30 0 -20 -80 -25 -124 -8 -20 7 -19 9 9 19 17 6 39 15
50 20 59 27 79 27 71 -1z m-406 -2 c0 -2 -7 -7 -16 -10 -8 -3 -12 -2 -9 4 6
10 25 14 25 6z m12 -76 c-10 -16 -52 -97 -92 -180 -41 -82 -78 -150 -82 -150
-17 0 2 101 27 140 14 22 25 44 25 49 0 5 13 20 29 34 17 14 27 28 24 31 -4 3
-1 6 5 6 6 0 14 9 17 20 6 19 52 80 61 80 2 0 -4 -13 -14 -30z m-192 -6 c0 -2
-9 0 -20 6 -11 6 -20 13 -20 16 0 2 9 0 20 -6 11 -6 20 -13 20 -16z m-962 -32
c-7 -18 -16 -32 -20 -32 -7 0 5 41 18 62 12 19 13 0 2 -30z m1788 20 c2 -9 1
-9 -3 -1 -3 7 -11 0 -19 -17 -13 -29 -20 -11 -8 21 7 18 26 16 30 -3z m-786
-2 c8 -5 12 -11 10 -14 -3 -2 -14 2 -24 10 -22 15 -10 19 14 4z m483 4 c72
-12 36 -21 -95 -23 -87 -1 -130 1 -123 8 19 18 144 27 218 15z m-603 -24 c0
-5 -2 -10 -4 -10 -3 0 -8 5 -11 10 -3 6 -1 10 4 10 6 0 11 -4 11 -10z m625
-42 c-21 -106 -36 -138 -90 -193 -30 -30 -58 -55 -62 -55 -9 0 -46 -62 -43
-70 1 -3 -11 -10 -27 -17 -16 -7 -21 -12 -11 -13 9 0 35 17 58 38 23 20 46 37
50 37 5 0 21 11 36 24 16 14 25 17 21 9 -3 -9 -15 -49 -27 -89 -12 -41 -23
-75 -24 -76 -1 -2 -27 7 -57 18 -30 11 -95 35 -145 54 -95 35 -154 62 -154 71
0 6 57 133 69 154 5 8 14 14 20 13 6 -2 10 0 10 5 -4 24 3 42 16 42 9 0 19 10
24 23 15 39 34 46 127 49 49 2 118 4 152 6 l64 3 -7 -33z m-615 12 c0 -5 -7
-13 -16 -18 -15 -8 -15 -10 1 -15 17 -7 45 13 45 32 0 15 57 -17 64 -36 6 -15
5 -15 -13 1 -19 18 -20 17 -17 -28 3 -34 0 -46 -10 -46 -8 0 -14 -8 -14 -17 0
-10 -11 -31 -25 -47 -14 -16 -25 -24 -25 -17 0 7 7 19 15 28 9 9 13 23 10 34
-4 11 -2 19 4 19 6 0 11 5 11 11 0 6 -6 9 -12 6 -7 -2 -13 -13 -13 -25 0 -12
-6 -27 -13 -34 -15 -15 -42 -19 -42 -7 0 5 5 9 10 9 6 0 9 12 9 28 -1 15 -3
20 -6 11 -4 -16 -42 -33 -52 -24 -2 3 4 12 15 19 18 14 18 15 -9 21 l-28 7 20
20 c36 32 24 51 -13 23 -11 -8 -25 -15 -30 -15 -6 1 1 8 17 16 15 8 27 20 27
26 0 9 3 9 12 0 7 -7 19 -12 28 -12 13 1 12 3 -2 14 -26 20 -22 26 17 26 19 0
35 -4 35 -10z m-929 -63 c-13 -12 -20 -15 -16 -7 14 26 28 41 33 35 3 -3 -5
-16 -17 -28z m-20 -69 c-24 -39 -28 -30 -5 13 8 17 18 28 21 25 3 -3 -4 -20
-16 -38z m876 -34 c-3 -3 -12 -4 -19 -1 -8 3 -5 6 6 6 11 1 17 -2 13 -5z m143
-68 c0 -11 -19 -15 -25 -6 -3 5 1 10 9 10 9 0 16 -2 16 -4z m-840 -545 c-29
-42 -36 -39 -8 3 13 19 24 33 26 31 3 -2 -6 -18 -18 -34z m-289 -180 c-6 -10
-7 -22 -3 -26 4 -5 1 -5 -6 -1 -9 5 -9 12 -2 27 6 10 13 19 16 19 2 0 0 -8 -5
-19z m160 -4 c-10 -9 -11 -8 -5 6 3 10 9 15 12 12 3 -3 0 -11 -7 -18z m-186
-82 c-9 -20 -18 -35 -21 -32 -3 3 2 22 11 42 8 21 18 36 20 33 3 -3 -2 -22
-10 -43z m1872 -287 c-3 -8 -6 -5 -6 6 -1 11 2 17 5 13 3 -3 4 -12 1 -19z m-7
-29 c0 -3 -9 -9 -20 -12 -19 -5 -27 3 -15 15 8 7 35 6 35 -3z m-25 -39 c3 -5
1 -10 -4 -10 -6 0 -11 5 -11 10 0 6 2 10 4 10 3 0 8 -4 11 -10z m-1774 -185
c73 -39 132 -146 133 -245 2 -112 -45 -175 -128 -172 l-42 2 -3 -52 c-2 -51
-28 -195 -37 -210 -3 -5 -19 -8 -36 -8 -29 0 -30 1 -24 33 12 56 37 201 42
237 5 31 2 38 -25 55 -31 20 -40 35 -21 35 6 0 10 -4 10 -10 0 -5 4 -10 10
-10 5 0 6 8 3 18 -6 15 -5 15 11 3 12 -10 13 -16 6 -21 -17 -11 53 -51 99 -57
51 -7 85 16 107 72 51 135 -40 311 -171 331 -25 3 -42 11 -39 16 8 12 68 2
105 -17z m-158 -21 c-38 -29 -54 -72 -59 -162 -2 -37 -4 -74 -5 -83 0 -8 16
-32 35 -51 20 -20 36 -40 36 -45 0 -5 -15 -10 -34 -11 -41 -3 -91 35 -99 75
-8 36 -34 187 -42 236 l-5 39 50 -28 c27 -15 50 -34 50 -43 0 -9 9 2 19 25 18
40 69 90 80 79 3 -4 -9 -17 -26 -31z m-223 -9 c0 -14 -4 -25 -10 -25 -5 0 -10
11 -10 25 0 14 5 25 10 25 6 0 10 -11 10 -25z m369 0 c43 -22 97 -90 111 -140
17 -60 9 -149 -17 -183 -31 -41 -71 -48 -128 -23 -27 12 -46 23 -43 26 3 3 18
-1 34 -9 38 -19 54 -21 84 -13 33 8 59 54 65 114 5 47 5 46 -9 -11 -22 -99
-74 -120 -160 -66 l-48 31 8 127 c4 71 11 130 17 134 6 4 25 5 42 2 19 -2 14
1 -15 10 l-45 14 38 1 c21 1 51 -6 66 -14z m-119 -4 c0 -5 -7 -14 -16 -22 -51
-43 -56 -140 -9 -210 29 -45 32 -57 8 -38 -44 37 -67 151 -42 216 16 44 59 83
59 54z m0 -133 c-1 -102 -2 -111 -16 -93 -27 36 -37 95 -24 140 11 37 27 65
36 65 2 0 4 -51 4 -112z m-461 -65 c7 -16 20 -39 29 -53 9 -14 17 -32 18 -40
1 -8 5 -27 9 -42 6 -22 3 -29 -11 -35 -11 -4 -25 -14 -32 -22 -10 -12 -15 -13
-18 -3 -3 6 -10 12 -16 12 -22 0 -78 76 -78 106 0 35 18 68 48 86 37 22 37 22
51 -9z m435 -80 c4 -7 3 -13 -2 -13 -5 0 -17 15 -27 34 -11 19 -22 33 -27 30
-4 -3 -5 2 -2 10 6 15 20 -1 58 -61z m2461 -13 c3 -5 1 -10 -4 -10 -6 0 -11 5
-11 10 0 6 2 10 4 10 3 0 8 -4 11 -10z m61 -26 c-23 -17 -46 -18 -46 -3 0 6 6
9 12 7 7 -3 19 2 27 9 7 8 16 11 20 8 3 -4 -3 -13 -13 -21z m-589 -40 c-3 -3
-12 -4 -19 -1 -8 3 -5 6 6 6 11 1 17 -2 13 -5z m663 -37 c0 -5 -4 -5 -10 -2
-5 3 -10 14 -10 23 0 15 2 15 10 2 5 -8 10 -19 10 -23z m5 -38 c-6 -18 -4 -20
13 -15 15 5 22 1 27 -14 7 -23 -5 -44 -12 -22 -3 6 -11 12 -18 12 -21 0 -37
34 -23 48 17 17 20 15 13 -9z m-2951 -35 c3 -9 12 -14 20 -11 8 3 16 -2 19
-14 4 -15 2 -17 -11 -9 -27 15 -52 37 -52 44 0 13 18 5 24 -10z m1266 -24 c28
-15 43 -73 35 -132 -6 -39 -15 -59 -40 -84 -33 -33 -54 -101 -39 -125 4 -7 2
-10 -7 -7 -15 5 -16 30 -4 110 6 38 4 53 -14 81 -23 38 -27 96 -10 130 20 37
44 46 79 27z m-1086 -122 c-8 -15 -14 -38 -14 -52 0 -14 -4 -27 -8 -30 -5 -3
-13 37 -18 88 l-9 94 31 -37 c30 -34 31 -38 18 -63z m299 -55 c-7 -2 -21 -2
-30 0 -10 3 -4 5 12 5 17 0 24 -2 18 -5z m110 -10 c-7 -2 -21 -2 -30 0 -10 3
-4 5 12 5 17 0 24 -2 18 -5z m872 -78 c-4 -38 -4 -38 4 -7 15 58 22 48 16 -23
-4 -43 -14 -80 -26 -97 -15 -21 -16 -32 -9 -59 12 -42 13 -129 1 -147 -13 -21
-21 35 -10 72 12 39 3 80 -27 133 -27 47 -29 65 -13 129 10 40 14 44 40 42 27
-2 28 -4 24 -43z m-356 -61 c24 -8 51 -20 59 -26 8 -7 17 -12 19 -10 8 6 24 1
19 -7 -3 -4 17 -23 45 -41 28 -18 48 -34 45 -37 -2 -3 -21 7 -42 21 -39 26
-56 27 -36 3 7 -8 9 -17 5 -21 -4 -3 -6 -32 -6 -64 l1 -57 -8 50 -7 50 -1 -52
c-2 -56 5 -86 19 -77 8 5 11 -60 11 -246 0 -36 -1 -72 -1 -81 -1 -13 -81 -68
-81 -56 0 2 9 52 20 112 11 60 20 145 20 189 0 77 -6 94 -15 45 -21 -107 -32
-190 -28 -221 6 -45 -15 -117 -28 -97 -7 11 -9 11 -9 -3 0 -9 4 -19 9 -23 11
-6 -23 -42 -59 -63 -12 -7 -24 -11 -27 -8 -9 9 7 57 17 51 16 -10 16 109 0
151 -5 13 -2 60 10 120 12 67 18 86 19 59 0 -22 -3 -59 -8 -82 -7 -34 -5 -44
10 -57 19 -16 36 -5 23 16 -4 6 -3 8 3 5 15 -9 21 74 12 153 -14 124 -37 240
-50 257 -10 12 -10 15 -1 9 6 -4 12 -5 12 -1 0 3 -10 10 -22 15 -21 9 -20 10
7 7 17 -3 48 -12 70 -22 62 -26 32 -4 -43 32 -37 18 -58 30 -47 27 11 -4 40
-13 64 -20z m1441 -44 c13 -8 13 -10 -2 -10 -9 0 -20 5 -23 10 -8 13 5 13 25
0z m94 -24 c14 3 30 3 37 -1 18 -12 -50 -37 -75 -28 -21 8 -31 10 -53 12 -7 0
-13 6 -13 12 0 7 10 9 26 5 18 -5 24 -3 19 5 -6 8 -2 8 14 0 11 -6 32 -9 45
-5z m-17 -72 c-3 -3 -12 -4 -19 -1 -8 3 -5 6 6 6 11 1 17 -2 13 -5z m59 -7 c4
-4 0 -7 -9 -7 -9 0 -18 4 -21 9 -7 10 20 9 30 -2z m-1385 -282 c-7 -48 -8 -31
-6 85 4 185 8 213 12 80 2 -58 -1 -132 -6 -165z m60 73 l-11 -33 5 34 c3 18 6
54 7 80 l2 46 3 -47 c2 -25 -1 -61 -6 -80z m647 -15 c-10 -2 -26 -2 -35 0 -10
3 -2 5 17 5 19 0 27 -2 18 -5z m92 -13 c11 -8 7 -9 -15 -4 -37 8 -45 14 -19
14 10 0 26 -5 34 -10z m54 -29 c-2 -3 -12 3 -22 13 -16 17 -16 18 5 5 12 -7
20 -15 17 -18z m-797 -3 c-3 -8 -6 -5 -6 6 -1 11 2 17 5 13 3 -3 4 -12 1 -19z
m757 -2 c14 -9 26 -13 26 -9 0 5 5 0 11 -10 6 -9 14 -15 20 -12 5 4 9 1 9 -6
0 -10 3 -10 12 -1 10 10 10 15 -2 22 -9 6 -17 5 -22 -3 -5 -8 -8 -8 -8 -1 0
19 12 24 32 13 13 -7 17 -17 13 -32 -6 -22 -6 -22 11 -2 16 20 16 19 9 -5 -6
-20 -5 -23 5 -13 10 9 16 9 25 0 7 -7 27 -25 44 -40 18 -16 30 -35 27 -42 -3
-9 0 -12 9 -9 8 4 23 -10 39 -35 31 -48 34 -63 7 -32 -12 13 -22 18 -26 11 -3
-5 -2 -10 2 -10 5 0 16 -16 25 -35 14 -33 14 -35 -7 -55 -12 -11 -25 -17 -30
-13 -4 5 -5 2 -1 -5 6 -11 13 -9 31 8 21 20 23 20 31 3 14 -33 12 -49 -9 -50
-18 -2 -18 -1 -2 17 9 10 12 21 7 24 -12 7 -29 -14 -26 -31 1 -7 2 -18 3 -24
0 -5 5 -8 10 -4 5 3 13 0 17 -6 4 -8 3 -9 -4 -5 -8 5 -12 -1 -12 -14 0 -13 4
-19 12 -14 7 4 8 3 4 -5 -9 -14 -26 -5 -26 13 0 8 -8 20 -17 27 -16 12 -17 12
-6 -1 13 -17 12 -44 -1 -57 -4 -4 -6 -1 -4 7 2 11 -4 14 -25 12 -18 -2 -26 1
-22 7 4 7 0 8 -11 4 -13 -5 -15 -3 -9 8 8 12 6 12 -8 1 -9 -8 -20 -11 -25 -9
-4 3 -14 2 -22 -4 -11 -6 -12 -9 -2 -9 8 0 10 -5 6 -12 -6 -10 -4 -10 7 0 18
17 28 15 25 -5 -2 -12 -11 -18 -29 -17 -15 1 -24 -2 -22 -6 3 -4 -2 -13 -10
-20 -15 -13 -21 -3 -15 25 1 6 -2 6 -6 2 -5 -4 -9 -20 -9 -35 0 -15 -6 -26
-12 -25 -6 1 -10 -5 -8 -15 4 -24 -6 -37 -16 -21 -6 10 -9 11 -9 2 0 -7 -5
-13 -10 -13 -6 0 -9 3 -8 8 2 4 -1 8 -6 9 -5 1 -12 6 -15 11 -3 5 -14 -1 -24
-14 -16 -22 -16 -23 2 -19 25 5 33 -16 15 -40 -13 -18 -20 -10 -15 19 1 5 -6
5 -16 2 -9 -4 -14 -4 -10 0 4 4 0 18 -9 32 -8 13 -13 30 -10 37 3 9 0 12 -9 9
-18 -7 -47 48 -38 73 5 14 3 15 -6 7 -10 -9 -21 -3 -48 27 -19 21 -32 43 -28
49 4 6 -1 7 -11 3 -13 -5 -15 -3 -9 7 5 9 4 11 -3 6 -6 -4 -30 5 -52 20 -55
37 -191 51 -230 25 -50 -34 -57 -37 -41 -17 8 10 32 26 54 37 37 19 98 75 178
164 52 57 97 97 133 118 40 22 162 19 200 -7z m-784 -60 c0 -46 -4 -65 -14
-69 -12 -5 -12 0 -5 26 5 18 9 49 9 69 0 21 2 38 5 38 3 0 5 -29 5 -64z m-55
-68 c-4 -18 -11 -37 -15 -42 -5 -5 -4 10 2 33 12 48 23 56 13 9z m-615 -118
c0 -5 -2 -10 -4 -10 -3 0 -8 5 -11 10 -3 6 -1 10 4 10 6 0 11 -4 11 -10z
m1754 -16 c3 -8 2 -12 -4 -9 -6 3 -10 10 -10 16 0 14 7 11 14 -7z m-100 -185
c-3 -5 -1 -9 5 -9 5 0 12 6 14 13 4 8 6 9 6 0 1 -6 -7 -19 -16 -29 -10 -10
-19 -21 -19 -26 -1 -4 -2 -11 -3 -14 0 -4 -12 1 -25 9 -20 13 -26 14 -35 3 -6
-7 -8 -15 -5 -19 9 -9 -16 -48 -27 -41 -18 10 -38 -16 -33 -44 3 -23 3 -24 -7
-9 -8 14 -14 16 -25 6 -8 -6 -16 -10 -17 -8 -2 2 -11 17 -20 32 -11 16 -23 25
-30 21 -7 -4 -8 -3 -4 1 12 14 37 15 34 2 -1 -7 5 -12 13 -12 8 0 20 -4 27 -8
6 -4 15 -2 19 4 5 8 3 9 -7 4 -12 -8 -12 -6 0 8 7 9 10 17 6 17 -4 0 -2 7 5
15 7 8 16 13 20 10 4 -3 14 3 21 13 13 15 12 16 -3 4 -12 -10 -18 -10 -24 -1
-4 7 -3 9 3 6 6 -4 19 3 29 14 10 11 24 17 33 14 8 -3 18 0 22 6 4 6 12 8 19
4 10 -6 9 -11 -5 -22 -11 -7 -14 -13 -8 -13 17 0 36 27 23 35 -6 3 -8 11 -5
16 3 5 0 6 -8 3 -8 -3 -14 1 -14 10 0 11 5 12 23 4 13 -6 21 -15 18 -19z m173
-31 c-3 -8 -6 -5 -6 6 -1 11 2 17 5 13 3 -3 4 -12 1 -19z m-223 -44 c3 -8 2
-12 -4 -9 -6 3 -10 10 -10 16 0 14 7 11 14 -7z m-919 -5 c11 -17 -1 -21 -15
-4 -8 9 -8 15 -2 15 6 0 14 -5 17 -11z m757 -161 c-4 -4 -8 12 -9 35 l-1 42 8
-35 c5 -19 6 -38 2 -42z"/>
<path d="M3775 5613 c-27 -5 -153 -42 -188 -55 -30 -12 -57 -54 -57 -90 0 -13
4 -52 8 -87 6 -51 13 -68 36 -87 27 -24 56 -32 56 -16 0 11 32 12 46 1 15 -12
120 8 153 29 14 9 34 24 44 34 10 10 29 18 43 18 18 0 27 8 35 28 14 35 -1 88
-24 86 -9 -1 -17 2 -17 6 0 12 -70 18 -70 5 0 -5 -5 -2 -11 8 -5 9 -15 17 -22
17 -7 0 -6 -4 3 -10 8 -5 11 -10 5 -10 -15 1 -45 26 -45 38 0 24 141 25 156 1
3 -5 17 -9 31 -9 21 0 23 2 13 15 -27 33 -157 84 -195 78z m-33 -240 c8 -10 4
-13 -16 -13 -21 0 -26 5 -26 24 0 28 23 41 29 17 2 -9 8 -22 13 -28z"/>
<path d="M4206 5212 c-2 -4 -1 -14 5 -22 7 -12 9 -10 9 8 0 23 -5 28 -14 14z"/>
<path d="M4246 5157 c3 -10 9 -15 12 -12 3 3 0 11 -7 18 -10 9 -11 8 -5 -6z"/>
<path d="M4280 5150 c-8 -5 -12 -12 -9 -15 8 -8 39 5 39 16 0 11 -11 11 -30
-1z"/>
<path d="M4315 5110 c-3 -6 -1 -10 5 -10 6 0 8 -5 5 -10 -7 -11 12 -40 25 -40
4 0 10 7 13 14 4 11 1 13 -10 9 -12 -5 -15 -2 -11 8 7 17 -18 44 -27 29z"/>
<path d="M4265 4367 c-4 -10 -5 -21 -1 -24 10 -10 18 4 13 24 -4 17 -4 17 -12
0z"/>
<path d="M3711 3874 c0 -11 3 -14 6 -6 3 7 2 16 -1 19 -3 4 -6 -2 -5 -13z"/>
<path d="M3688 3852 c-3 -11 0 -19 7 -19 7 0 10 8 7 19 -2 10 -6 18 -7 18 -1
0 -5 -8 -7 -18z"/>
<path d="M3515 3949 c-4 -6 -5 -12 -2 -15 7 -7 37 7 37 17 0 13 -27 11 -35 -2z"/>
<path d="M2490 2021 c0 -18 17 -38 25 -30 12 14 8 44 -7 47 -13 2 -18 -3 -18
-17z"/>
<path d="M2578 2365 c32 -27 58 -67 73 -115 5 -17 8 -19 8 -7 2 38 -52 118
-94 139 -11 5 -5 -2 13 -17z"/>
<path d="M3482 1660 c0 -14 2 -19 5 -12 2 6 2 18 0 25 -3 6 -5 1 -5 -13z"/>
<path d="M3502 1650 c0 -14 2 -19 5 -12 2 6 2 18 0 25 -3 6 -5 1 -5 -13z"/>
<path d="M3471 1614 c0 -11 3 -14 6 -6 3 7 2 16 -1 19 -3 4 -6 -2 -5 -13z"/>
<path d="M4301 1093 c-1 -17 16 -25 25 -12 4 7 3 9 -4 5 -5 -3 -13 0 -15 6 -4
9 -6 10 -6 1z"/>
<path d="M4340 1060 c8 -5 11 -10 7 -10 -4 0 -2 -6 5 -14 7 -8 16 -12 20 -10
9 6 -23 44 -37 44 -5 0 -3 -5 5 -10z"/>
<path d="M4389 893 c-13 -16 -12 -17 4 -4 9 7 17 15 17 17 0 8 -8 3 -21 -13z"/>
<path d="M4309 843 c-13 -16 -12 -17 4 -4 16 13 21 21 13 21 -2 0 -10 -8 -17
-17z"/>
<path d="M4204 808 l-19 -23 23 19 c21 18 27 26 19 26 -2 0 -12 -10 -23 -22z"/>
<path d="M4350 798 c-19 -16 -26 -25 -14 -20 11 6 26 18 33 26 8 9 18 13 24 9
6 -3 7 -1 3 5 -9 15 -5 17 -46 -20z"/>
<path d="M4289 773 c-13 -16 -12 -17 4 -4 16 13 21 21 13 21 -2 0 -10 -8 -17
-17z"/>
<path d="M4370 786 c0 -2 8 -10 18 -17 15 -13 16 -12 3 4 -13 16 -21 21 -21
13z"/>
<path d="M4019 753 c-13 -16 -12 -17 4 -4 16 13 21 21 13 21 -2 0 -10 -8 -17
-17z"/>
<path d="M4154 728 l-19 -23 23 19 c21 18 27 26 19 26 -2 0 -12 -10 -23 -22z"/>
<path d="M4059 693 c-13 -16 -12 -17 4 -4 16 13 21 21 13 21 -2 0 -10 -8 -17
-17z"/>
<path d="M4107 681 c-11 -14 -10 -14 6 -2 16 13 18 13 15 0 -1 -8 1 -14 7 -14
14 0 13 32 -2 32 -7 0 -19 -7 -26 -16z"/>
<path d="M4173 688 c-11 -19 -13 -39 -1 -32 5 3 7 9 4 12 -3 3 -1 11 5 19 6 7
9 13 6 13 -3 0 -9 -6 -14 -12z"/>
<path d="M4069 673 c-13 -16 -12 -17 4 -4 9 7 17 15 17 17 0 8 -8 3 -21 -13z"/>
<path d="M4194 658 l-19 -23 23 19 c21 18 27 26 19 26 -2 0 -12 -10 -23 -22z"/>
<path d="M4097 635 c-4 -8 -3 -16 1 -19 4 -3 9 4 9 15 2 23 -3 25 -10 4z"/>
<path d="M4285 680 c-3 -5 -2 -10 4 -10 5 0 13 5 16 10 3 6 2 10 -4 10 -5 0
-13 -4 -16 -10z"/>
<path d="M4185 581 c-3 -5 -2 -12 3 -15 5 -3 9 1 9 9 0 17 -3 19 -12 6z"/>
<path d="M2972 5080 c0 -14 2 -19 5 -12 2 6 2 18 0 25 -3 6 -5 1 -5 -13z"/>
<path d="M2606 3965 c-9 -26 -7 -32 5 -12 6 10 9 21 6 23 -2 3 -7 -2 -11 -11z"/>
<path d="M5090 3957 c0 -3 21 -22 48 -43 26 -21 38 -28 27 -15 -21 24 -75 66
-75 58z"/>
<path d="M5190 3864 c0 -5 7 -18 15 -28 8 -11 15 -16 15 -10 0 5 -7 18 -15 28
-8 11 -15 16 -15 10z"/>
<path d="M5240 3780 c6 -11 13 -20 16 -20 2 0 0 9 -6 20 -6 11 -13 20 -16 20
-2 0 0 -9 6 -20z"/>
<path d="M2518 3761 c-2 -16 -1 -28 3 -25 4 2 10 -2 13 -8 3 -7 3 -2 0 11 -5
18 -3 22 7 15 11 -6 10 -3 -1 12 -8 10 -15 20 -16 22 -1 2 -4 -11 -6 -27z"/>
<path d="M5276 3717 c3 -10 9 -15 12 -12 3 3 0 11 -7 18 -10 9 -11 8 -5 -6z"/>
<path d="M5302 3640 c0 -14 2 -19 5 -12 2 6 2 18 0 25 -3 6 -5 1 -5 -13z"/>
<path d="M5336 3637 c3 -10 9 -15 12 -12 3 3 0 11 -7 18 -10 9 -11 8 -5 -6z"/>
<path d="M5313 3575 c0 -22 2 -30 4 -17 2 12 2 30 0 40 -3 9 -5 -1 -4 -23z"/>
<path d="M5321 3324 c0 -11 3 -14 6 -6 3 7 2 16 -1 19 -3 4 -6 -2 -5 -13z"/>
<path d="M5070 3260 c0 -5 14 -10 32 -10 36 0 35 4 -4 14 -17 4 -28 2 -28 -4z"/>
<path d="M4883 3241 c-46 -10 -85 -16 -88 -13 -3 3 -5 0 -5 -6 0 -12 29 -10
105 9 22 5 65 13 95 18 49 8 51 9 15 9 -22 0 -77 -7 -122 -17z"/>
<path d="M5350 3251 c0 -5 -3 -16 -6 -25 -3 -9 -2 -16 3 -16 5 0 10 11 11 25
1 14 0 25 -3 25 -3 0 -5 -4 -5 -9z"/>
<path d="M5391 3245 c-1 -12 3 -25 9 -31 13 -13 1 -54 -17 -54 -9 0 -13 6 -10
13 3 8 -1 14 -9 14 -17 0 -17 -2 -2 -30 6 -12 12 -62 14 -112 1 -49 5 -106 8
-125 20 -122 29 -227 35 -385 l6 -180 22 115 c31 155 51 511 34 593 -9 41 -19
60 -34 69 -25 13 -37 27 -37 47 0 9 7 6 20 -9 13 -15 20 -18 21 -9 0 8 4 6 10
-6 6 -14 7 -6 3 25 -3 25 -13 53 -22 63 -15 17 -16 17 -26 0 -9 -16 -10 -16
-17 2 -7 19 -8 19 -8 0z"/>
<path d="M4670 3205 c0 -17 -2 -17 -10 -5 -7 10 -10 11 -10 2 0 -14 27 -28 36
-19 3 3 1 14 -5 24 -10 17 -10 17 -11 -2z"/>
<path d="M4902 3202 c-4 -9 -18 -18 -32 -20 -13 -1 -34 -11 -45 -22 -12 -11
-26 -20 -32 -20 -6 0 -14 -7 -17 -16 -3 -8 -10 -12 -16 -9 -5 3 -10 -1 -10
-11 0 -13 -3 -14 -14 -5 -11 9 -15 7 -18 -6 -3 -10 -1 -27 3 -38 5 -13 8 -15
8 -5 1 13 2 13 11 0 7 -11 10 -11 10 -2 0 8 5 10 12 6 8 -5 9 -2 5 9 -5 13 -1
17 14 17 15 0 19 5 15 16 -3 9 -2 12 5 9 12 -8 89 40 89 55 0 6 12 10 28 11
15 0 21 3 15 6 -19 7 -16 21 5 25 14 3 12 5 -6 10 -16 5 -25 2 -30 -10z"/>
<path d="M5225 3090 c-3 -5 1 -10 9 -10 9 0 16 5 16 10 0 6 -4 10 -9 10 -6 0
-13 -4 -16 -10z"/>
<path d="M4670 3072 c0 -4 9 -13 20 -20 16 -10 20 -10 20 2 0 8 -7 17 -16 20
-20 8 -24 8 -24 -2z"/>
<path d="M5156 3055 c-15 -11 -16 -15 -5 -16 9 0 7 -4 -6 -10 -18 -8 -18 -8 4
-6 16 1 25 9 27 25 4 26 5 26 -20 7z"/>
<path d="M5193 3052 c0 -12 5 -22 9 -22 11 0 10 12 -2 30 -7 12 -9 10 -7 -8z"/>
<path d="M4617 3005 c-27 -14 -55 -25 -63 -25 -8 0 -14 -4 -14 -10 0 -5 4 -10
9 -10 5 0 7 -8 5 -17 -3 -10 2 -27 11 -38 11 -14 13 -15 9 -3 -4 12 2 18 25
23 32 7 40 20 19 28 -8 3 -6 6 4 6 19 1 85 36 106 55 25 24 -60 17 -111 -9z"/>
<path d="M4302 3000 c7 -11 19 -22 26 -25 8 -3 10 0 6 7 -5 8 -2 9 10 5 11 -4
15 -3 11 4 -4 6 -14 8 -22 4 -13 -4 -14 -3 -3 10 11 13 9 15 -14 15 -24 0 -25
-2 -14 -20z"/>
<path d="M5100 3000 c0 -13 20 -13 40 0 12 8 9 10 -12 10 -16 0 -28 -4 -28
-10z"/>
<path d="M5080 2991 c0 -5 -13 -12 -30 -16 -32 -7 -51 -26 -32 -33 25 -8 11
-22 -15 -16 -26 7 -27 6 -14 -10 13 -15 12 -18 -7 -23 -14 -3 -22 -13 -22 -26
0 -19 3 -18 33 10 17 16 40 33 49 36 9 3 22 16 28 28 10 17 9 20 -1 14 -8 -6
-10 -4 -5 4 5 7 14 10 20 8 24 -9 36 8 16 21 -11 7 -20 8 -20 3z m-35 -42 c11
-16 1 -19 -13 -3 -7 8 -8 14 -3 14 5 0 13 -5 16 -11z"/>
<path d="M4541 2894 c0 -11 3 -14 6 -6 3 7 2 16 -1 19 -3 4 -6 -2 -5 -13z"/>
<path d="M4523 2863 c9 -2 23 -2 30 0 6 3 -1 5 -18 5 -16 0 -22 -2 -12 -5z"/>
<path d="M4920 2840 c24 -8 23 -8 -7 -9 -20 -1 -32 -6 -30 -13 1 -6 -10 -18
-25 -25 -16 -8 -28 -21 -28 -30 0 -10 -6 -14 -20 -10 -11 3 -18 1 -15 -3 8
-12 -6 -41 -16 -34 -10 6 -41 -21 -33 -29 12 -12 -37 -48 -57 -42 -24 8 -25
-3 -1 -21 16 -12 16 -14 -3 -28 -11 -8 -26 -16 -33 -16 -7 0 -10 -4 -7 -10 3
-5 -1 -10 -9 -10 -9 0 -16 -4 -16 -10 0 -5 -6 -10 -14 -10 -13 0 -46 -41 -46
-57 0 -4 4 -2 9 6 8 12 12 12 25 2 9 -8 16 -19 16 -25 0 -8 -2 -8 -8 0 -14 23
-64 13 -90 -17 -13 -16 -28 -27 -32 -24 -5 3 -11 1 -15 -5 -3 -5 -1 -10 6 -10
18 0 4 -11 -18 -14 -10 -2 -18 -11 -18 -22 0 -15 6 -19 30 -17 16 2 31 7 33
13 2 5 12 10 22 10 10 0 21 7 24 16 4 10 14 14 25 11 13 -3 23 5 36 29 10 19
25 34 34 35 9 0 6 4 -9 10 l-25 10 34 15 c18 8 45 15 60 15 17 1 20 3 9 6 -27
7 -22 20 18 57 24 22 34 38 29 46 -6 10 -4 12 8 7 11 -4 17 -1 17 9 0 8 10 19
23 24 12 5 16 9 8 9 -10 1 -11 4 -2 15 9 11 9 15 -1 20 -7 3 -1 3 13 0 18 -4
28 -1 32 10 4 9 13 16 21 16 8 0 17 9 21 19 3 11 15 23 26 26 10 4 17 10 14
15 -3 5 3 13 12 19 16 9 16 12 3 21 -8 5 -24 9 -35 9 -16 -1 -16 -2 5 -9z
m-265 -300 c3 -5 2 -10 -4 -10 -5 0 -13 5 -16 10 -3 6 -2 10 4 10 5 0 13 -4
16 -10z"/>
<path d="M4768 2733 c7 -3 16 -2 19 1 4 3 -2 6 -13 5 -11 0 -14 -3 -6 -6z"/>
<path d="M2182 2665 c0 -16 2 -22 5 -12 2 9 2 23 0 30 -3 6 -5 -1 -5 -18z"/>
<path d="M2163 2568 c-12 -15 -48 -85 -40 -78 14 13 58 83 54 86 -2 3 -9 -1
-14 -8z"/>
<path d="M2105 2437 c2 -41 15 -64 15 -28 0 12 7 32 15 44 13 21 12 22 -10 22
-21 0 -23 -4 -20 -38z"/>
<path d="M4375 2440 c-3 -5 -1 -10 4 -10 6 0 11 5 11 10 0 6 -2 10 -4 10 -3 0
-8 -4 -11 -10z"/>
<path d="M4420 2319 c9 -16 14 -18 26 -8 16 13 19 23 5 14 -5 -3 -12 -1 -16 5
-12 20 -26 10 -15 -11z"/>
<path d="M1742 2305 c0 -16 2 -22 5 -12 2 9 2 23 0 30 -3 6 -5 -1 -5 -18z"/>
<path d="M2926 2239 c-9 -29 -14 -159 -7 -163 5 -3 11 34 14 81 6 82 3 114 -7
82z"/>
<path d="M2177 2219 c4 -13 8 -18 11 -10 2 7 -1 18 -6 23 -8 8 -9 4 -5 -13z"/>
<path d="M2961 2143 c2 -85 2 -86 9 -33 11 80 11 120 0 120 -6 0 -9 -35 -9
-87z"/>
<path d="M1810 2191 c10 -35 29 -64 31 -45 0 5 2 17 4 27 2 11 1 16 -2 13 -3
-3 -14 5 -24 17 -18 22 -18 22 -9 -12z"/>
<path d="M3007 2213 c-11 -11 -8 -163 3 -163 6 0 10 35 10 85 0 85 -1 91 -13
78z"/>
<path d="M3054 2115 c0 -49 1 -71 3 -48 2 23 2 64 0 90 -2 26 -3 8 -3 -42z"/>
<path d="M3090 2095 c0 -50 4 -85 10 -85 6 0 10 35 10 85 0 50 -4 85 -10 85
-6 0 -10 -35 -10 -85z"/>
<path d="M4390 2089 c0 -5 5 -7 10 -4 6 3 10 8 10 11 0 2 -4 4 -10 4 -5 0 -10
-5 -10 -11z"/>
<path d="M1614 2045 c4 -48 53 -133 110 -193 39 -41 85 -62 134 -62 23 0 23 0
3 21 -12 13 -33 22 -60 23 -22 1 -44 5 -48 10 -4 4 1 4 12 0 20 -7 20 -7 1 15
-11 12 -25 20 -32 17 -8 -3 -11 1 -8 9 4 9 -4 19 -20 26 -14 7 -28 20 -31 31
-4 10 -11 18 -16 18 -5 0 -9 8 -9 18 0 10 -4 22 -9 28 -5 5 -14 25 -20 44
l-11 35 4 -40z"/>
<path d="M4923 2012 c15 -9 27 -20 27 -25 0 -4 5 -5 10 -2 12 8 -31 45 -52 45
-7 0 -1 -8 15 -18z"/>
<path d="M4595 2012 c16 -7 11 -10 -25 -16 l-44 -7 54 -25 c85 -39 212 -51
212 -19 -1 15 -68 49 -112 56 -25 4 -58 10 -75 14 -22 4 -24 3 -10 -3z"/>
<path d="M4178 1932 c-43 -39 -34 -62 20 -52 44 8 94 -8 121 -39 9 -10 27 -23
39 -30 13 -7 21 -15 18 -18 -3 -3 -28 11 -56 32 -28 21 -53 35 -56 33 -9 -10
96 -81 113 -76 13 3 163 -32 228 -54 33 -11 94 -38 135 -58 42 -21 96 -43 120
-50 45 -12 169 -22 182 -14 15 9 -4 32 -23 27 -11 -3 -21 1 -25 11 -3 9 -14
16 -24 16 -10 0 -48 11 -85 25 -72 28 -162 50 -182 46 -7 -1 -13 2 -13 7 0 4
-26 16 -57 26 -100 32 -197 82 -240 125 -23 22 -48 41 -55 41 -8 0 -23 7 -34
15 -33 25 -89 19 -126 -13z"/>
<path d="M1865 1714 c-11 -3 -81 -16 -155 -30 -323 -62 -612 -191 -739 -330
-49 -54 -96 -151 -88 -183 2 -10 7 -5 12 14 12 48 50 107 96 150 l43 40 -41
-46 c-44 -50 -78 -107 -69 -117 3 -3 6 0 6 7 0 7 5 9 12 5 6 -4 8 -3 4 4 -3 6
-2 13 4 17 6 4 10 -27 11 -87 0 -51 3 -111 8 -133 4 -25 7 12 7 102 0 129 4
166 19 151 3 -3 7 -74 9 -158 3 -146 5 -155 26 -172 13 -10 24 -17 25 -16 2 2
-2 33 -7 70 -7 45 -7 116 0 209 8 122 12 144 30 162 12 11 23 19 25 16 2 -2
-1 -51 -7 -109 -6 -58 -8 -132 -5 -165 4 -33 7 -90 8 -126 1 -83 13 -99 106
-138 38 -16 71 -29 72 -28 1 1 -10 40 -24 87 -29 99 -40 264 -26 403 5 48 5
87 1 87 -4 0 -8 17 -8 37 0 38 14 37 23 -2 2 -11 3 -3 2 17 -3 33 0 38 29 49
17 6 45 18 61 25 17 7 56 23 88 35 32 11 56 23 53 26 -5 6 -78 -21 -175 -64
-29 -13 -56 -21 -59 -18 -7 7 11 26 29 29 41 8 78 20 109 36 62 31 198 80 224
80 38 0 40 -17 3 -26 l-32 -8 33 -3 c28 -4 31 -7 22 -24 -6 -11 -9 -23 -6 -28
3 -4 6 -46 7 -92 1 -49 7 -90 14 -99 7 -8 18 -32 25 -52 6 -21 15 -38 19 -38
4 0 18 -33 29 -72 18 -62 28 -77 60 -101 30 -22 38 -34 35 -51 -4 -17 3 -29
25 -45 37 -26 43 -26 35 -3 -6 16 -6 16 10 0 9 -9 17 -23 17 -32 0 -8 9 -21
20 -29 10 -7 24 -24 29 -38 7 -18 10 -19 10 -6 1 10 -10 28 -24 41 -27 25 -32
37 -13 34 7 -2 14 7 16 20 4 29 24 37 52 22 12 -6 24 -9 27 -6 6 6 -67 80 -88
88 -29 11 -63 229 -62 406 0 69 -3 92 -13 92 -7 0 -15 -15 -18 -32 -3 -18 -9
-58 -14 -88 l-9 -55 -2 75 c-3 88 -19 70 -20 -22 -1 -31 -6 -60 -11 -63 -7 -4
-10 34 -9 114 2 91 5 121 15 121 7 0 16 5 20 11 4 8 0 9 -15 4 -15 -4 -21 -2
-21 8 0 9 9 15 23 15 29 0 84 10 122 21 l30 9 -30 0 c-16 0 -39 -2 -50 -4z
m-672 -242 c-42 -33 -114 -74 -119 -69 -6 6 8 15 86 61 52 30 65 33 33 8z m-9
-84 l-8 -33 -6 35 c-7 40 -2 56 12 42 6 -6 7 -23 2 -44z m-31 -138 c-3 -12 -8
-19 -11 -16 -5 6 5 36 12 36 2 0 2 -9 -1 -20z m707 -236 c0 -2 -8 1 -19 7 -11
8 -16 19 -13 31 4 16 6 16 18 -8 8 -14 14 -28 14 -30z"/>
<path d="M2483 1701 c10 -4 18 -11 18 -16 0 -6 2 -18 5 -28 7 -24 23 -12 17
13 -4 15 0 20 13 20 14 0 16 -2 6 -9 -11 -6 -10 -12 5 -26 13 -13 14 -20 5
-23 -7 -2 -10 -8 -6 -13 3 -5 -2 -9 -11 -9 -12 0 -14 -4 -5 -19 5 -11 10 -37
11 -58 1 -21 4 -49 8 -63 17 -60 35 58 21 143 -4 26 -3 50 2 53 4 3 6 10 3 15
-5 7 82 2 92 -5 1 -1 3 -22 5 -46 3 -43 2 -45 -23 -45 -25 1 -27 -3 -33 -61
-7 -73 -2 -94 24 -87 16 4 18 0 13 -36 -5 -37 -3 -41 15 -41 15 0 24 8 28 28
4 15 17 37 30 50 23 22 24 22 24 2 0 -14 7 -20 21 -20 20 0 21 4 14 43 -4 23
-8 49 -10 57 -2 8 -4 21 -4 28 -1 7 -5 11 -10 7 -5 -3 -10 9 -9 27 0 18 -2 44
-4 58 -3 21 2 26 27 31 22 5 14 7 -30 8 -33 1 -91 8 -130 16 -72 15 -166 20
-132 6z"/>
<path d="M4590 1678 c0 -8 29 -26 73 -42 39 -16 139 -62 221 -102 82 -41 155
-74 162 -74 7 0 20 -7 29 -16 13 -13 28 -15 86 -9 90 9 123 34 121 91 0 30 2
34 8 19 11 -25 13 -1 3 35 l-7 25 -6 -25 c-3 -14 -12 -25 -20 -26 -27 -1 -60
-15 -60 -26 0 -7 -4 -7 -13 0 -15 13 -57 5 -57 -10 0 -6 -6 -5 -15 2 -8 6 -19
8 -26 4 -7 -4 -25 -7 -40 -6 -16 0 -29 -4 -29 -9 0 -5 -14 -2 -31 6 -17 9 -33
14 -35 12 -3 -3 -32 8 -65 24 -32 16 -61 29 -64 29 -12 0 -181 84 -187 94 -4
6 -10 7 -14 3 -4 -4 -13 -2 -21 4 -10 9 -13 8 -13 -3z"/>
<path d="M1998 1658 c5 -5 16 -8 23 -6 8 3 3 7 -10 11 -17 4 -21 3 -13 -5z"/>
<path d="M2795 1650 c-3 -5 1 -42 9 -82 8 -40 18 -98 22 -128 6 -44 14 -60 40
-86 19 -17 36 -29 39 -26 3 3 5 0 5 -7 0 -7 5 -9 11 -5 24 14 -18 222 -59 296
-18 32 -57 54 -67 38z"/>
<path d="M1840 1640 c0 -5 5 -10 10 -10 6 0 10 5 10 10 0 6 -4 10 -10 10 -5 0
-10 -4 -10 -10z"/>
<path d="M4120 1630 c6 -11 13 -20 16 -20 2 0 0 9 -6 20 -6 11 -13 20 -16 20
-2 0 0 -9 6 -20z"/>
<path d="M1590 1523 c0 -4 5 -15 10 -23 8 -13 10 -13 10 2 0 9 -4 20 -10 23
-5 3 -10 3 -10 -2z"/>
<path d="M1493 1474 c-7 -12 -15 -65 -19 -118 -6 -84 -9 -94 -21 -78 -12 15
-13 12 -11 -30 2 -25 0 -44 -4 -42 -11 7 -48 -58 -41 -69 3 -6 1 -7 -4 -4 -6
4 -11 27 -11 52 -1 25 -3 49 -6 53 -8 13 -8 134 0 185 5 38 4 47 -8 47 -9 0
-14 -8 -13 -22 1 -13 -2 -29 -7 -35 -6 -7 -8 -19 -5 -26 2 -7 -2 -44 -10 -82
-8 -39 -15 -79 -15 -90 0 -64 16 -272 22 -285 4 -8 11 -38 15 -65 3 -28 10
-56 14 -63 23 -37 651 -125 651 -91 0 6 -4 8 -9 4 -6 -3 -13 0 -18 7 -18 28
-42 41 -57 29 -22 -19 -42 13 -27 45 16 37 13 44 -6 10 l-16 -30 -23 30 c-13
16 -24 32 -24 37 0 4 -7 7 -15 7 -8 0 -21 16 -30 36 -16 39 -38 70 -94 129
-58 63 -78 96 -91 156 -10 42 -10 61 -1 77 13 24 5 122 -10 122 -15 0 -39 -31
-45 -58 -3 -15 -7 -31 -8 -37 -2 -5 -9 1 -16 15 -8 14 -17 66 -20 115 -4 77
-7 87 -17 69z m7 -129 c0 -8 -4 -15 -10 -15 -5 0 -7 7 -4 15 4 8 8 15 10 15 2
0 4 -7 4 -15z m0 -217 c0 -19 2 -20 10 -8 9 13 10 13 10 0 0 -20 -16 -44 -22
-34 -12 22 -18 64 -8 64 5 0 10 -10 10 -22z m40 -38 c0 -5 -4 -10 -10 -10 -5
0 -10 5 -10 10 0 6 5 10 10 10 6 0 10 -4 10 -10z m-100 -91 c6 -11 10 -25 8
-31 -5 -14 -38 19 -38 38 0 21 18 17 30 -7z m126 -28 c-4 -5 -2 -20 3 -34 7
-17 6 -28 -2 -37 -9 -10 -8 -12 5 -7 10 4 18 -1 21 -13 3 -11 22 -27 43 -37
22 -9 48 -24 58 -33 11 -8 17 -10 15 -5 -29 61 -50 117 -46 122 4 3 57 -120
57 -131 0 -13 -40 1 -41 14 0 10 -2 11 -6 2 -6 -15 -48 12 -110 71 -34 33 -40
44 -32 59 6 12 6 18 -1 18 -5 0 -10 5 -10 10 0 6 12 10 26 10 14 0 23 -4 20
-9z m39 -1 c3 -5 2 -10 -4 -10 -5 0 -13 5 -16 10 -3 6 -2 10 4 10 5 0 13 -4
16 -10z"/>
<path d="M1540 930 c0 -5 5 -10 11 -10 5 0 7 5 4 10 -3 6 -8 10 -11 10 -2 0
-4 -4 -4 -10z"/>
<path d="M1423 1425 c0 -22 2 -30 4 -17 2 12 2 30 0 40 -3 9 -5 -1 -4 -23z"/>
<path d="M4970 1403 c0 -10 -123 -33 -174 -33 -25 0 -35 -5 -39 -20 -3 -11 -2
-22 3 -25 13 -8 78 -13 85 -7 9 9 29 9 35 1 3 -4 32 2 65 13 34 11 74 17 93
14 29 -4 31 -3 22 14 -6 11 -9 25 -8 32 2 9 -11 14 -39 16 -24 2 -43 -1 -43
-5z"/>
<path d="M3041 1384 c0 -11 3 -14 6 -6 3 7 2 16 -1 19 -3 4 -6 -2 -5 -13z"/>
<path d="M4052 1373 c-11 -11 -6 -13 24 -13 37 0 255 -48 349 -77 31 -10 69
-33 101 -62 162 -147 225 -193 242 -177 9 10 -42 74 -73 92 -16 10 -32 20 -35
24 -3 3 -26 18 -52 33 -26 15 -54 34 -62 43 -9 8 -16 13 -16 10 0 -7 -113 61
-137 83 -27 26 -34 26 -26 4 6 -16 5 -17 -13 -3 -10 8 -23 20 -29 27 -9 10
-85 20 -210 27 -33 2 -55 -2 -63 -11z"/>
<path d="M2261 1364 c0 -11 3 -14 6 -6 3 7 2 16 -1 19 -3 4 -6 -2 -5 -13z"/>
<path d="M2272 1305 c0 -16 2 -22 5 -12 2 9 2 23 0 30 -3 6 -5 -1 -5 -18z"/>
<path d="M5042 1264 c1 -9 11 -18 21 -20 24 -3 22 13 -4 26 -18 10 -20 9 -17
-6z"/>
<path d="M4158 1253 c7 -3 16 -2 19 1 4 3 -2 6 -13 5 -11 0 -14 -3 -6 -6z"/>
<path d="M1689 1209 c-3 -8 0 -30 7 -49 l13 -35 0 30 c0 39 -14 74 -20 54z"/>
<path d="M2991 1189 c-14 -39 -14 -57 -2 -43 10 10 25 74 18 74 -3 0 -10 -14
-16 -31z"/>
<path d="M4271 1202 c13 -21 45 -38 62 -34 4 1 7 -3 7 -9 0 -16 24 -36 38 -31
8 2 10 -2 5 -14 -4 -12 -3 -15 5 -10 7 4 12 1 12 -8 0 -8 11 -23 25 -34 14
-11 25 -25 25 -30 0 -6 5 -14 11 -18 8 -4 9 1 4 16 -5 17 -4 21 5 15 9 -5 11
-4 6 3 -4 7 -14 12 -22 12 -8 0 -22 16 -29 35 -10 23 -35 48 -75 75 -33 22
-60 38 -60 34 0 -3 -7 0 -17 7 -15 13 -15 12 -2 -9z"/>
<path d="M2061 1184 c0 -11 3 -14 6 -6 3 7 2 16 -1 19 -3 4 -6 -2 -5 -13z"/>
<path d="M891 1124 c0 -11 3 -14 6 -6 3 7 2 16 -1 19 -3 4 -6 -2 -5 -13z"/>
<path d="M2292 1115 c0 -16 2 -22 5 -12 2 9 2 23 0 30 -3 6 -5 -1 -5 -18z"/>
<path d="M2278 1073 c6 -2 18 -2 25 0 6 3 1 5 -13 5 -14 0 -19 -2 -12 -5z"/>
<path d="M890 1063 c0 -7 4 -14 9 -17 5 -3 7 -15 4 -25 -11 -43 64 -127 247
-275 224 -182 397 -294 650 -421 155 -78 457 -188 580 -212 24 -4 24 -4 -4 11
-15 9 -33 16 -38 16 -5 0 -16 7 -24 15 -9 8 -25 15 -36 15 -11 0 -22 8 -25 18
-2 10 -18 24 -34 31 -23 10 -29 18 -26 33 4 14 1 18 -11 16 -20 -3 -92 31 -92
43 0 5 -11 9 -25 9 -14 0 -25 5 -25 10 0 6 -12 16 -27 22 -16 7 -42 23 -59 35
-17 13 -43 23 -58 23 -15 0 -29 7 -32 15 -4 9 -11 14 -18 13 -6 -1 -30 8 -54
19 -23 12 -40 17 -36 12 10 -17 -12 -9 -35 12 -16 16 -22 30 -19 50 3 16 1 29
-3 29 -11 0 -19 -29 -12 -47 5 -15 4 -16 -8 -7 -8 6 -26 14 -41 18 -16 3 -28
11 -28 16 0 12 2 12 35 0 25 -9 27 -7 46 36 11 25 18 52 15 60 -3 9 -1 12 4 9
6 -3 10 -2 10 4 0 31 -158 91 -168 63 -2 -7 -7 -10 -12 -7 -5 3 -16 -2 -24
-11 -19 -19 -21 -6 -2 19 7 9 22 18 32 18 10 1 1 5 -21 10 -22 5 -71 15 -110
23 -171 35 -484 207 -472 258 2 7 2 10 0 6 -3 -5 -11 -8 -19 -8 -9 0 -13 3
-10 8 2 4 -2 16 -10 27 -8 10 -14 14 -14 8z m445 -304 c4 -6 14 -8 22 -5 19 8
83 -22 83 -39 0 -25 -27 -37 -51 -23 -17 10 -23 10 -26 1 -7 -20 -20 -16 -54
16 -18 18 -26 32 -19 36 6 3 8 11 5 16 -4 5 3 9 14 9 11 0 23 -5 26 -11z m285
-110 c0 -5 -11 -3 -25 3 -14 6 -25 15 -25 19 0 5 11 3 25 -3 14 -6 25 -15 25
-19z m-54 -60 c22 -17 38 -36 36 -41 -1 -6 3 -16 9 -24 6 -8 8 -14 3 -15 -5 0
0 -4 10 -8 19 -7 19 -8 -2 -13 -12 -4 -20 -2 -16 3 3 5 1 9 -5 9 -5 0 -13 -4
-16 -10 -14 -23 -32 -7 -44 38 -12 50 -20 92 -16 92 1 0 20 -14 41 -31z m31
-125 c-3 -3 -12 -4 -19 -1 -8 3 -5 6 6 6 11 1 17 -2 13 -5z"/>
<path d="M2177 1013 c-7 -11 10 -40 18 -31 4 4 3 14 -3 24 -5 9 -12 12 -15 7z"/>
<path d="M4481 1001 c-9 -6 -10 -11 -2 -15 6 -4 20 -24 32 -44 11 -20 17 -28
13 -17 -4 11 -7 28 -8 37 0 9 -4 14 -8 12 -7 -5 -12 10 -9 29 1 9 -1 9 -18 -2z"/>
<path d="M2125 960 c-3 -6 1 -7 9 -4 23 9 20 -12 -4 -29 -17 -11 -19 -22 -16
-62 5 -47 5 -47 -22 -42 -15 3 -35 9 -44 12 -41 16 -35 -54 9 -105 l26 -32 96
4 c53 2 96 5 95 8 -17 151 -28 209 -41 214 -10 4 -13 2 -10 -8 3 -8 9 -32 12
-53 6 -35 5 -36 -9 -20 -8 11 -18 37 -21 58 -4 22 -13 46 -22 54 -17 17 -49
20 -58 5z"/>
<path d="M2680 960 c0 -5 5 -10 11 -10 5 0 7 5 4 10 -3 6 -8 10 -11 10 -2 0
-4 -4 -4 -10z"/>
<path d="M2536 860 c4 -41 10 -76 14 -78 4 -1 5 -15 3 -30 -2 -15 6 -2 18 28
29 74 36 122 17 115 -9 -4 -19 3 -26 17 -10 21 -11 22 -12 3 l-1 -20 -10 20
c-6 13 -7 -6 -3 -55z"/>
<path d="M2570 920 c0 -5 7 -10 16 -10 8 0 12 5 9 10 -3 6 -10 10 -16 10 -5 0
-9 -4 -9 -10z"/>
<path d="M1934 674 c10 -10 22 -11 50 -3 20 5 36 12 36 14 0 3 -22 4 -49 4
-41 -1 -48 -4 -37 -15z"/>
<path d="M2143 683 c-26 -5 -29 -20 -9 -58 9 -17 16 -23 21 -15 6 9 9 9 15 -1
7 -10 12 -10 25 1 15 12 19 12 29 0 13 -17 66 -26 66 -12 0 5 9 12 19 15 22 5
25 44 5 65 -12 12 -119 15 -171 5z"/>
<path d="M2328 683 c7 -3 16 -2 19 1 4 3 -2 6 -13 5 -11 0 -14 -3 -6 -6z"/>
</g>
</svg>
